# xmcd CD database file
#
# Track frame offsets:
#	150
#	17897
#	39667
#	58505
#	75742
#	97472
#	121505
#	140455
#	159610
#	174235
#	191882
#	202850
#	223170
#
# Disc length: 3222 seconds
#
# Revision: 0
# Processed by: cddbd v1.5PL3 Copyright (c) Steve Scherf et al.
# Submitted via: CDex 1.50
#
DISCID=b60c940d
DTITLE=スネオヘアー - SUN!NEO!AIR!
DYEAR=1999
DGENRE=JPop
TTITLE0=真夜中のシャッフル
TTITLE1=フィルター
TTITLE2=知るわけないだろう
TTITLE3=こうしてはいられない
TTITLE4=ナロウカーヴ
TTITLE5=打ち上げ花火
TTITLE6=アイモカワラズ
TTITLE7=スネオサマー
TTITLE8=さがしだす場所
TTITLE9=おかしいな
TTITLE10=てっぺん
TTITLE11=やわらかアタマ
TTITLE12=アイモカワラズ(ボーナスバージョン)
EXTD=YEAR: 1999
EXTT0=
EXTT1=
EXTT2=
EXTT3=
EXTT4=
EXTT5=
EXTT6=
EXTT7=
EXTT8=
EXTT9=
EXTT10=
EXTT11=
EXTT12=
PLAYORDER=
